<?xml version="1.0" standalone="no"?>
<!DOCTYPE svg PUBLIC "-//W3C//DTD SVG 20010904//EN"
 "http://www.w3.org/TR/2001/REC-SVG-20010904/DTD/svg10.dtd">
<svg version="1.0" xmlns="http://www.w3.org/2000/svg"
 width="500.000000pt" height="500.000000pt" viewBox="0 0 500.000000 500.000000"
 preserveAspectRatio="xMidYMid meet">

<g transform="translate(0.000000,500.000000) scale(0.100000,-0.100000)"
fill="#000000" stroke="none">
<path d="M1277 3280 c-93 -16 -174 -86 -205 -179 -8 -21 -12 -107 -12 -225 0
-220 3 -210 -94 -282 -68 -50 -93 -88 -81 -126 4 -13 45 -59 91 -103 l84 -80
0 -180 c0 -196 7 -238 51 -302 45 -64 101 -93 182 -93 l67 0 0 75 0 75 -27 0
c-38 0 -91 34 -98 62 -2 13 -6 109 -7 213 -3 213 -6 225 -81 302 l-40 42 46
50 c69 77 77 113 77 328 0 142 3 190 15 212 14 28 58 51 96 51 17 0 19 9 19
85 0 95 6 90 -83 75z"/>
<path d="M1635 3183 c-14 -34 -135 -397 -135 -405 0 -4 22 -8 48 -8 l48 0 18
55 17 56 91 -3 91 -3 17 -50 c17 -50 17 -50 63 -53 26 -2 47 1 47 5 0 5 -31
101 -68 213 l-69 205 -80 3 c-70 2 -82 0 -88 -15z m122 -138 c13 -38 23 -73
23 -77 0 -4 -27 -8 -60 -8 -33 0 -60 4 -60 8 0 7 27 90 45 140 10 27 29 4 52
-63z"/>
<path d="M2480 3077 c-20 -7 -44 -26 -58 -47 -33 -49 -40 -48 -35 5 l6 45 -47
0 -46 0 0 -155 0 -155 44 0 43 0 6 86 c9 119 40 158 112 140 35 -9 45 -41 45
-142 l0 -84 51 0 52 0 -5 108 c-6 117 -18 155 -58 183 -35 24 -70 29 -110 16z"/>
<path d="M2820 3080 c-66 -12 -110 -51 -110 -97 0 -20 5 -23 41 -23 30 0 46 6
59 22 28 35 109 25 110 -13 0 -3 -27 -9 -59 -12 -72 -8 -138 -33 -151 -58 -15
-28 -12 -75 8 -98 20 -26 83 -42 126 -34 44 9 72 29 86 63 16 39 34 39 25 0
-9 -43 8 -60 61 -60 l44 0 0 45 c0 38 -3 45 -20 45 -18 0 -20 7 -20 58 0 69
-23 120 -65 143 -37 20 -89 28 -135 19z m100 -177 c-1 -41 -103 -73 -117 -38
-7 21 0 27 44 35 53 11 73 11 73 3z"/>
<path d="M2012 3068 c-8 -8 -12 -57 -12 -155 l0 -143 45 0 44 0 3 113 3 112
78 -1 77 -1 0 43 0 44 -113 0 c-75 0 -117 -4 -125 -12z"/>
<path d="M3080 3073 c0 -5 22 -74 48 -153 l49 -145 79 -3 80 -3 47 145 c26 80
47 150 47 156 0 7 -18 10 -46 8 l-46 -3 -34 -107 c-21 -65 -40 -108 -48 -108
-8 0 -27 43 -47 108 l-35 107 -47 3 c-26 2 -47 -1 -47 -5z"/>
<path d="M1960 2385 l0 -225 44 0 43 0 6 86 c9 119 40 158 112 140 35 -9 45
-41 45 -142 l0 -84 50 0 50 0 0 74 c0 99 -16 175 -42 203 -51 55 -143 46 -186
-17 -13 -19 -26 -36 -30 -38 -4 -1 -5 50 -4 113 l4 115 -46 0 -46 0 0 -225z"/>
<path d="M1605 2585 c-54 -19 -85 -57 -85 -102 0 -51 55 -101 146 -131 104
-35 134 -52 134 -73 0 -25 -30 -39 -87 -39 -63 0 -96 18 -108 58 -9 30 -12 32
-57 32 -43 0 -48 -2 -48 -22 0 -47 39 -106 86 -128 56 -28 194 -31 242 -6 44
23 72 63 72 104 0 47 -58 103 -132 127 -102 33 -148 57 -148 75 0 22 19 30 74
30 44 0 86 -22 86 -46 0 -10 13 -14 51 -14 l52 0 -7 33 c-17 89 -157 142 -271
102z"/>
<path d="M2480 2470 c-66 -12 -110 -51 -110 -97 0 -20 5 -23 41 -23 30 0 46 6
59 22 28 35 109 25 110 -13 0 -3 -27 -9 -59 -12 -72 -8 -138 -33 -151 -58 -15
-28 -12 -75 8 -98 20 -26 83 -42 126 -34 44 9 72 29 86 63 16 39 34 39 25 0
-9 -43 8 -60 61 -60 l44 0 0 45 c0 38 -3 45 -20 45 -18 0 -20 7 -20 58 0 69
-23 120 -65 143 -37 20 -89 28 -135 19z m100 -177 c-1 -41 -103 -73 -117 -38
-7 21 0 27 44 35 53 11 73 11 73 3z"/>
<path d="M3245 2473 c-29 -7 -46 -24 -62 -60 -19 -48 -34 -41 -26 12 l6 45
-47 0 -46 0 0 -155 0 -155 45 0 45 0 1 53 c1 127 23 177 76 177 33 0 43 -34
43 -141 l0 -89 45 0 45 0 0 58 c1 124 26 176 80 170 31 -4 38 -28 39 -140 l1
-88 45 0 45 0 0 115 c0 156 -21 198 -100 198 -46 0 -68 -15 -87 -60 -17 -42
-26 -41 -41 1 -7 19 -18 38 -25 44 -16 13 -58 20 -82 15z"/>
<path d="M3760 2470 c-66 -12 -110 -51 -110 -97 0 -20 5 -23 41 -23 30 0 46 6
59 22 28 35 109 25 110 -13 0 -3 -27 -9 -59 -12 -72 -8 -138 -33 -151 -58 -15
-28 -12 -75 8 -98 20 -26 83 -42 126 -34 44 9 72 29 86 63 16 39 34 39 25 0
-9 -43 8 -60 61 -60 l44 0 0 45 c0 38 -3 45 -20 45 -18 0 -20 7 -20 58 0 69
-23 120 -65 143 -37 20 -89 28 -135 19z m100 -177 c-1 -41 -103 -73 -117 -38
-7 21 0 27 44 35 53 11 73 11 73 3z"/>
<path d="M2782 2458 c-8 -8 -12 -57 -12 -155 l0 -143 45 0 44 0 3 113 3 112
78 -1 77 -1 0 43 0 44 -113 0 c-75 0 -117 -4 -125 -12z"/>
<path d="M1492 1919 c3 -8 15 -44 27 -82 13 -37 26 -65 31 -62 5 3 16 29 25
58 10 28 21 56 25 60 4 5 18 -21 31 -57 12 -36 26 -66 30 -66 5 0 18 33 30 73
11 39 23 75 26 80 2 4 0 7 -5 7 -5 0 -17 -27 -27 -60 -10 -33 -21 -60 -25 -60
-4 0 -17 27 -29 60 -12 33 -26 58 -31 55 -5 -3 -16 -29 -25 -58 -10 -28 -21
-56 -25 -60 -3 -4 -15 20 -25 53 -10 34 -23 64 -28 67 -6 4 -8 0 -5 -8z"/>
<path d="M1750 1850 l0 -80 48 2 47 1 -42 4 c-40 4 -43 6 -43 34 0 27 3 29 35
29 19 0 35 5 35 10 0 6 -16 10 -36 10 -33 0 -35 2 -32 28 3 23 9 28 43 33 l40
6 -47 2 -48 1 0 -80z"/>
<path d="M1880 1850 l0 -80 43 0 c24 0 48 5 55 12 15 15 16 50 1 65 -8 8 -8
13 0 17 34 22 -6 66 -60 66 l-39 0 0 -80z m78 61 c8 -5 12 -17 10 -27 -2 -14
-13 -20 -41 -22 -33 -3 -37 -1 -37 21 0 13 3 27 7 30 9 10 45 8 61 -2z m18
-86 c10 -25 -16 -46 -50 -43 -25 2 -32 8 -34 31 -3 26 -1 27 38 27 27 0 43 -5
46 -15z"/>
<path d="M2090 1850 l0 -80 35 0 c66 0 104 45 89 105 -7 30 -50 55 -94 55
l-30 0 0 -80z m69 59 c52 -18 56 -100 5 -119 -58 -22 -64 -16 -64 60 0 76 2
79 59 59z"/>
<path d="M2250 1850 l0 -80 53 2 c50 1 50 2 10 5 -40 4 -43 6 -43 34 0 27 3
29 35 29 19 0 35 5 35 10 0 6 -16 10 -35 10 -32 0 -35 2 -35 29 0 28 3 30 43
34 40 3 40 4 -10 5 l-53 2 0 -80z"/>
<path d="M2371 1924 c-2 -18 54 -146 63 -147 11 -2 68 132 63 147 -2 5 -14
-17 -27 -50 -30 -77 -37 -84 -50 -48 -17 47 -48 110 -49 98z"/>
<path d="M2530 1850 l0 -80 53 2 c50 1 50 2 10 5 -40 4 -43 6 -43 34 0 27 3
29 35 29 19 0 35 5 35 10 0 6 -16 10 -35 10 -32 0 -35 2 -35 29 0 28 3 30 43
34 40 3 40 4 -10 5 l-53 2 0 -80z"/>
<path d="M2672 1853 l-2 -83 48 2 47 1 -42 4 -42 4 -4 77 -3 77 -2 -82z"/>
<path d="M2806 1909 c-20 -16 -26 -29 -26 -58 0 -49 32 -81 82 -81 70 0 103
86 53 135 -30 31 -73 32 -109 4z m103 -14 c23 -22 18 -75 -8 -97 -31 -25 -57
-23 -86 7 -32 31 -32 59 1 91 27 28 64 27 93 -1z"/>
<path d="M2981 1848 c1 -46 4 -71 6 -56 4 22 11 28 44 33 30 5 43 13 50 32 16
44 -12 73 -72 73 l-29 0 1 -82z m64 62 c21 -8 26 -16 23 -38 -3 -23 -8 -27
-40 -30 -37 -3 -38 -2 -38 31 0 49 9 55 55 37z"/>
<path d="M3120 1850 l0 -80 48 2 47 1 -42 4 c-40 4 -43 6 -43 34 0 27 3 29 35
29 19 0 35 5 35 10 0 6 -16 10 -36 10 -33 0 -35 2 -32 28 3 23 9 28 43 33 l40
6 -47 2 -48 1 0 -80z"/>
<path d="M3252 1848 c0 -46 3 -68 5 -50 6 44 44 45 70 2 9 -16 21 -30 26 -30
4 0 0 14 -10 31 -17 29 -17 31 0 40 21 12 22 52 1 73 -9 9 -32 16 -55 16 l-39
0 2 -82z m90 49 c13 -21 4 -41 -23 -51 -38 -13 -59 -2 -59 32 0 16 3 32 7 36
11 11 65 -2 75 -17z"/>
</g>
</svg>
