<?xml version="1.0" standalone="no"?>
<!DOCTYPE svg PUBLIC "-//W3C//DTD SVG 20010904//EN"
 "http://www.w3.org/TR/2001/REC-SVG-20010904/DTD/svg10.dtd">
<svg version="1.0" xmlns="http://www.w3.org/2000/svg"
 width="500.000000pt" height="500.000000pt" viewBox="0 0 500.000000 500.000000"
 preserveAspectRatio="xMidYMid meet">

<g transform="translate(0.000000,500.000000) scale(0.100000,-0.100000)"
fill="#000000" stroke="none">
<path d="M0 2500 l0 -2500 2500 0 2500 0 0 2500 0 2500 -2500 0 -2500 0 0
-2500z m1875 482 l73 -213 -51 3 -50 3 -17 50 -17 50 -91 3 -91 3 -17 -56 -18
-55 -48 0 c-26 0 -48 4 -48 8 0 6 118 365 135 410 3 9 27 12 86 10 l81 -3 73
-213z m712 82 c44 -28 54 -57 60 -178 l6 -116 -51 0 -50 0 -4 101 c-2 86 -6
103 -22 115 -30 22 -74 17 -101 -11 -23 -22 -25 -32 -25 -115 l0 -90 -50 0
-50 0 0 155 0 155 51 0 c51 0 51 0 46 -27 -3 -16 -9 -36 -12 -45 -4 -11 -3
-18 4 -18 6 0 15 10 20 23 26 66 113 91 178 51z m368 -3 c42 -23 65 -74 65
-143 0 -51 2 -58 20 -58 17 0 20 -7 20 -45 l0 -45 -44 0 c-52 0 -71 18 -62 60
7 39 -8 39 -24 0 -7 -16 -22 -35 -34 -43 -54 -35 -151 -27 -181 16 -17 24 -20
70 -5 96 12 24 76 49 145 57 61 7 73 15 49 35 -24 20 -75 15 -95 -9 -12 -16
-28 -22 -58 -22 -36 0 -41 3 -41 23 0 86 147 133 245 78z m-705 -26 l0 -46
-75 7 -75 7 0 -117 0 -116 -50 0 -50 0 0 143 c0 98 4 147 12 155 8 8 50 12
125 12 l113 0 0 -45z m959 -67 c20 -61 41 -108 48 -108 7 0 27 46 46 108 l34
107 47 3 c32 2 46 -1 46 -10 0 -7 -21 -77 -47 -155 l-47 -143 -81 0 -80 0 -45
141 c-25 78 -47 148 -48 156 -3 11 7 13 44 11 l48 -3 35 -107z m-1151 -455
c-2 -54 -8 -106 -12 -115 -13 -29 12 -21 26 9 41 84 161 89 214 8 11 -17 17
-58 21 -139 l6 -116 -51 0 -50 0 -4 101 c-2 86 -6 103 -22 115 -30 22 -74 17
-101 -11 -23 -22 -25 -32 -25 -115 l0 -90 -50 0 -50 0 0 225 0 225 51 0 51 0
-4 -97z m-295 76 c55 -15 106 -65 114 -111 l6 -38 -47 0 c-40 0 -48 3 -56 24
-13 34 -43 48 -97 44 -31 -2 -50 -9 -57 -21 -14 -22 -7 -27 108 -68 148 -54
203 -130 145 -203 -35 -45 -75 -59 -165 -59 -107 0 -164 25 -193 87 -12 23
-21 52 -21 64 0 20 5 22 48 22 45 0 48 -2 57 -32 12 -40 45 -58 108 -58 78 0
109 28 70 62 -10 8 -56 28 -103 44 -146 49 -198 127 -135 202 39 46 136 64
218 41z m852 -138 c42 -23 65 -74 65 -143 0 -51 2 -58 20 -58 17 0 20 -7 20
-45 l0 -45 -44 0 c-52 0 -71 18 -62 60 7 39 -8 39 -24 0 -7 -16 -22 -35 -34
-43 -54 -35 -151 -27 -181 16 -17 24 -20 70 -5 96 12 24 76 49 145 57 61 7 73
15 49 35 -24 20 -75 15 -95 -9 -12 -16 -28 -22 -58 -22 -36 0 -41 3 -41 23 0
86 147 133 245 78z m714 5 c8 -6 21 -27 29 -46 l14 -35 18 36 c26 49 44 62 90
62 79 0 100 -42 100 -198 l0 -115 -44 0 -44 0 -4 106 c-3 78 -7 107 -18 114
-24 15 -48 12 -70 -10 -17 -17 -20 -33 -20 -115 l0 -95 -49 0 -49 0 -4 106
c-3 78 -7 107 -18 114 -24 15 -48 12 -70 -10 -17 -17 -20 -33 -20 -115 l0 -95
-50 0 -50 0 0 155 0 155 51 0 c48 0 51 -1 45 -22 -17 -60 -17 -68 -8 -68 5 0
15 13 22 29 21 52 59 73 110 63 14 -3 31 -10 39 -16z m566 -5 c42 -23 65 -74
65 -143 0 -51 2 -58 20 -58 17 0 20 -7 20 -45 l0 -45 -44 0 c-52 0 -71 18 -62
60 7 39 -8 39 -24 0 -7 -16 -22 -35 -34 -43 -54 -35 -151 -27 -181 16 -17 24
-20 70 -5 96 12 24 76 49 145 57 61 7 73 15 49 35 -24 20 -75 15 -95 -9 -12
-16 -28 -22 -58 -22 -36 0 -41 3 -41 23 0 86 147 133 245 78z m-875 -26 l0
-46 -75 7 -75 7 0 -117 0 -116 -50 0 -50 0 0 143 c0 98 4 147 12 155 8 8 50
12 125 12 l113 0 0 -45z m-1495 -565 c10 -33 21 -58 24 -54 3 3 15 31 26 62
11 31 24 57 29 57 5 0 18 -26 29 -57 10 -32 22 -58 26 -58 4 0 16 27 26 60 10
33 22 60 28 60 5 0 7 -6 5 -12 -3 -7 -15 -43 -27 -80 -13 -38 -26 -68 -31 -68
-5 0 -18 30 -31 67 -21 63 -22 65 -34 42 -7 -13 -19 -43 -26 -67 -7 -23 -17
-41 -23 -39 -6 2 -19 30 -29 63 -9 32 -20 67 -23 78 -4 10 -2 16 3 13 5 -3 18
-33 28 -67z m280 61 c-34 -5 -40 -10 -43 -33 -3 -26 -1 -28 32 -28 20 0 36 -4
36 -10 0 -5 -16 -10 -35 -10 -32 0 -35 -2 -35 -29 0 -28 3 -30 43 -34 l42 -4
-47 -1 -48 -2 0 80 0 80 48 -1 47 -2 -40 -6z m169 -7 c19 -18 21 -40 5 -50 -8
-4 -8 -9 0 -17 15 -15 14 -50 -1 -65 -7 -7 -31 -12 -55 -12 l-43 0 0 80 0 80
39 0 c23 0 46 -7 55 -16z m206 1 c33 -17 46 -58 31 -98 -12 -32 -39 -47 -85
-47 l-36 0 0 80 0 80 30 0 c17 0 44 -7 60 -15z m133 8 c-40 -4 -43 -6 -43 -34
0 -27 3 -29 35 -29 19 0 35 -4 35 -10 0 -5 -16 -10 -35 -10 -32 0 -35 -2 -35
-29 0 -28 3 -30 43 -34 40 -3 40 -4 -10 -5 l-53 -2 0 80 0 80 53 -2 c50 -1 50
-2 10 -5z m97 -66 c12 -32 26 -55 30 -50 4 4 15 31 25 58 18 51 35 78 35 59 0
-22 -57 -149 -66 -147 -9 1 -64 127 -64 147 0 19 17 -8 40 -67z m183 66 c-40
-4 -43 -6 -43 -34 0 -27 3 -29 35 -29 19 0 35 -4 35 -10 0 -5 -16 -10 -35 -10
-32 0 -35 -2 -35 -29 0 -28 3 -30 43 -34 40 -3 40 -4 -10 -5 l-53 -2 0 80 0
80 53 -2 c50 -1 50 -2 10 -5z m130 -146 l42 -4 -47 -1 -48 -2 2 83 2 82 3 -77
4 -77 42 -4z m192 128 c50 -49 17 -135 -53 -135 -48 0 -82 32 -82 79 0 74 83
109 135 56z m155 5 c36 -36 18 -77 -40 -86 -32 -5 -40 -11 -43 -33 -2 -14 -5
11 -6 57 l-1 82 35 0 c22 0 43 -8 55 -20z m105 11 c-34 -5 -40 -10 -43 -33 -3
-26 -1 -28 32 -28 20 0 36 -4 36 -10 0 -5 -16 -10 -35 -10 -32 0 -35 -2 -35
-29 0 -28 3 -30 43 -34 l42 -4 -47 -1 -48 -2 0 80 0 80 48 -1 47 -2 -40 -6z
m169 -7 c20 -20 20 -53 0 -75 -14 -16 -14 -20 1 -43 10 -14 13 -26 8 -26 -5 0
-17 14 -26 30 -26 43 -64 42 -70 -2 -2 -18 -5 4 -5 50 l-2 82 39 0 c23 0 46
-7 55 -16z"/>
<path d="M1701 3097 c-5 -13 -15 -43 -21 -66 -6 -23 -14 -49 -17 -57 -4 -11 7
-14 56 -14 34 0 61 4 61 8 0 23 -48 146 -58 150 -7 2 -16 -7 -21 -21z"/>
<path d="M2847 2900 c-44 -8 -51 -14 -44 -35 14 -35 116 -3 117 38 0 8 -20 8
-73 -3z"/>
<path d="M2507 2290 c-44 -8 -51 -14 -44 -35 14 -35 116 -3 117 38 0 8 -20 8
-73 -3z"/>
<path d="M3787 2290 c-44 -8 -51 -14 -44 -35 14 -35 116 -3 117 38 0 8 -20 8
-73 -3z"/>
<path d="M1897 1913 c-4 -3 -7 -17 -7 -30 0 -22 4 -24 38 -21 29 2 38 8 40 24
2 15 -4 23 -20 28 -30 8 -43 8 -51 -1z"/>
<path d="M1892 1813 c2 -23 9 -29 34 -31 34 -3 60 18 50 43 -3 10 -19 15 -46
15 -39 0 -41 -1 -38 -27z"/>
<path d="M2100 1850 c0 -63 2 -70 19 -70 59 0 91 39 77 95 -4 17 -17 27 -44
34 -20 6 -40 11 -44 11 -5 0 -8 -31 -8 -70z"/>
<path d="M2832 1910 c-53 -22 -51 -97 3 -122 52 -24 106 32 85 87 -7 19 -50
49 -63 44 -1 0 -12 -4 -25 -9z"/>
<path d="M2997 1913 c-4 -3 -7 -22 -7 -40 0 -33 1 -34 38 -31 32 3 37 7 40 30
3 22 -2 30 -23 38 -31 12 -39 12 -48 3z"/>
<path d="M3264 1907 c-12 -33 0 -62 27 -65 24 -3 59 19 59 36 -1 32 -75 57
-86 29z"/>
</g>
</svg>
